<svg id="Camada_1" data-name="Camada 1" xmlns="http://www.w3.org/2000/svg" viewBox="0 0 280 280"><defs><style>.cls-1{fill:#fff;}.cls-2{fill:#312783;}</style></defs><title>logotypeIcon_dark</title><path class="cls-1" d="M86.64,163.28a4.52,4.52,0,0,1-1.36,2.44q-14,16.22-34.67,16.22-21.53,0-34.45-15.72Q4.09,151.58,4.09,129.62T16.37,92.87Q29.43,76.94,50.89,76.94q21.75,0,33.66,14.71a4.55,4.55,0,0,1,1.15,2.51q0,1.22-3.8,7.21t-4.59,6q-.93,0-4.38-3.52a38.73,38.73,0,0,0-8-6.46,27.08,27.08,0,0,0-13.64-3.52q-14.21,0-22.11,10.84-7,9.69-7,24.4t7,24.62q7.89,11.13,22,11.13a28.25,28.25,0,0,0,13.57-3.52,40.7,40.7,0,0,0,8.76-6.53q3.73-3.52,4.09-3.52T82.33,157Q86.64,162.71,86.64,163.28Z"/><path class="cls-1" d="M162.58,165.44a14,14,0,0,1-.57,3.3q-.65,2.73-.79,3.3-.22,2.58-1,7.54a1.71,1.71,0,0,1-1.87,1.29,23.81,23.81,0,0,1-2.73-.29q-8.83-1.29-27.35-1.29-5.24,0-15.79.29t-15.79.29q-2.37,0-2.37-2.08,0-8,.9-24.15t.9-24.15q0-8.18-.86-30.51-.15-5.74-.79-17.15l-.07-1q-.07-1.65,1.87-1.65,5,0,15.07.29t15.07.29q4.81,0,14.39-.29t14.39-.29q3.37,0,3.66,2.08A109.35,109.35,0,0,1,160.35,93q0,1.65-1.58,1.65-6.1,0-18.48-.68t-18.63-.68q-5.89,0-7.43,1.58t-1.54,7.82V113.4a30.74,30.74,0,0,0,.22,5.1q.65,2.23,3.73,2.23.86,0,2.44-.07h2.44q14.07,0,25.27-.5,4.38-.14,10.34-.72,1.51-.14,1.51,1.29a69,69,0,0,1-.54,7,68.86,68.86,0,0,0-.54,7.11q0,1.29-2.15,1.29-.86,0-6.39-.5-4-.43-18.09-.43-11.84,0-15,.29a3.26,3.26,0,0,0-3.3,3q.07-.5.07,5.53v10.62q0,7.46,2.3,9.33,1.79,1.51,9,1.51l7.9-.07q5,0,28.21-1.72l1.08-.07Q162.58,163.5,162.58,165.44Z"/><path class="cls-2" d="M234.22,89.65a11.49,11.49,0,0,1,6.23,1.73,11.77,11.77,0,0,1,4.31,4.83L278,162.35l-38.58,19.31L227,157h-.42q-1.36,0-2.55,0a16.55,16.55,0,0,1-2.34-.26,10.64,10.64,0,0,1-2.25-.68,11.91,11.91,0,0,1-2.27-1.31L193.2,136.8h-7.87a11.22,11.22,0,0,1-4.57-.94,11.9,11.9,0,0,1-3.73-2.55,12.39,12.39,0,0,1-2.53-3.75,11.23,11.23,0,0,1-.94-4.57,11.76,11.76,0,0,1,.84-4.41,11.42,11.42,0,0,1-4.17-9,11.93,11.93,0,0,1,1.62-6,11.23,11.23,0,0,1,4.48-4.36l17-9.28a18.18,18.18,0,0,1,4.31-1.69,18.87,18.87,0,0,1,4.59-.56Zm8.2,83L269,159.35,238.72,99.16a5.1,5.1,0,0,0-1.83-2.06,4.85,4.85,0,0,0-2.67-.75h-32a11.7,11.7,0,0,0-5.67,1.45l-17,9.28a4.87,4.87,0,0,0-1.92,1.85,5,5,0,0,0-.7,2.6,4.93,4.93,0,0,0,.4,2A5.08,5.08,0,0,0,180,116.2a4.93,4.93,0,0,0,2,.4,4.77,4.77,0,0,0,2.39-.61l2-1.1,3.33-1.87,4-2.2q2.09-1.15,3.91-2.11t3.12-1.59a6,6,0,0,1,1.57-.63H219a11.4,11.4,0,0,1,4.59.94,11.88,11.88,0,0,1,6.28,6.28,11.72,11.72,0,0,1,0,9.19,12,12,0,0,1-2.53,3.75,11.77,11.77,0,0,1-8.34,3.42,12.2,12.2,0,0,1-3.75-.59,10.63,10.63,0,0,1-3.33-1.76l-9.42-7.08a3.18,3.18,0,0,0-1.92-.66H185.33a4.82,4.82,0,0,0-1.95.4,5.08,5.08,0,0,0-2.67,2.67,4.95,4.95,0,0,0,0,3.89,5.67,5.67,0,0,0,1.05,1.62,4.67,4.67,0,0,0,1.57,1.1,4.93,4.93,0,0,0,2,.4h10.13L221,149.27a4.94,4.94,0,0,0,3,1h7ZM203,113.51a9.88,9.88,0,0,1,3.61,1.73l9.47,7.08a4.87,4.87,0,0,0,3,1,4.82,4.82,0,0,0,1.95-.4,5.65,5.65,0,0,0,1.62-1.05,4.68,4.68,0,0,0,1.1-1.57,4.93,4.93,0,0,0,.4-2,5,5,0,0,0-.4-2,5,5,0,0,0-2.7-2.7,5,5,0,0,0-2-.4H203.52Z"/></svg>