<svg id="Camada_1" data-name="Camada 1" xmlns="http://www.w3.org/2000/svg" viewBox="0 0 40 40"><defs><style>.cls-1{fill:#3272b9;}.cls-2{fill:#fff;}</style></defs><title>codeemoji_logo</title><rect class="cls-1" x="2" y="2" width="36" height="36" rx="5" ry="5"/><path class="cls-2" d="M8.67,13.62a8.19,8.19,0,0,0-1.5,5.15q0,3.77,1.86,5.67a4.53,4.53,0,0,1-2.24-2.15A7.22,7.22,0,0,1,6,18.81a6.72,6.72,0,0,1,.44-2.45,5.22,5.22,0,0,1,1-1.73A4.76,4.76,0,0,1,8.67,13.62Zm11,9.18h.26L19.48,25a14.17,14.17,0,0,1-2.36.7,11.28,11.28,0,0,1-2.19.22,6.64,6.64,0,0,1-5-1.86,7.37,7.37,0,0,1-1.81-5.37,7.09,7.09,0,0,1,1.94-5.37,7,7,0,0,1,5.09-1.85,13.84,13.84,0,0,1,4.64.83q-.11,1.66-.11,2t0,.54v.32a12.35,12.35,0,0,1-.07,1.31h-.22q-.82-4-4.56-4a5.19,5.19,0,0,0-4,1.65,6.73,6.73,0,0,0-1.5,4.72,6.7,6.7,0,0,0,1.38,4.39,5,5,0,0,0,4.14,1.69,6.38,6.38,0,0,0,2.79-.61A5.39,5.39,0,0,0,19.64,22.79Z"/><path class="cls-2" d="M23.91,11.76h.43v13.9h-.87q-.46,0-2,.16v-.24a1.9,1.9,0,0,0,1.08-.67,2.78,2.78,0,0,0,.51-1.15,17.81,17.81,0,0,0,.14-2.9V15.33a4.76,4.76,0,0,0-.51-2.62,2.06,2.06,0,0,0-1.23-.87V11.6Zm6.66,13.9H25.29V11.76h3.84q1.08,0,4.09-.16c0,.26,0,.46,0,.59s0,.58.06,1.23q0,.65,0,.7v.33h-.22A2.84,2.84,0,0,0,32,13a5.54,5.54,0,0,0-2.28-.32h-2.1a6,6,0,0,0-.92.07,6.07,6.07,0,0,0-.28,2.14l0,.9v2.15h2.85a5.34,5.34,0,0,0,2.13-.28,2.1,2.1,0,0,0,.84-1.32h.29q-.11,1.19-.11,2.06,0,.55.08,1.45c0,.18,0,.52.07,1h-.29a2.17,2.17,0,0,0-.7-1.6,3.17,3.17,0,0,0-1.86-.44H26.39v2.87a20.21,20.21,0,0,0,.18,2.91,8.4,8.4,0,0,0,1.19.08h2a6.34,6.34,0,0,0,2.46-.37,4.28,4.28,0,0,0,1.71-1.7h.26a12.5,12.5,0,0,1-.43,1.4,14.92,14.92,0,0,0-.52,1.78A26,26,0,0,0,30.57,25.65Z"/></svg>